<?xml version="1.0" standalone="no"?><!DOCTYPE svg PUBLIC "-//W3C//DTD SVG 1.1//EN" "http://www.w3.org/Graphics/SVG/1.1/DTD/svg11.dtd"><svg t="1765958917512" class="icon" viewBox="0 0 1024 1024" version="1.1" xmlns="http://www.w3.org/2000/svg" p-id="4539" xmlns:xlink="http://www.w3.org/1999/xlink" width="200" height="200"><path d="M663.978367 392.001999 363.352495 392.267035c-16.533558 0-29.953196-13.05534-29.953196-29.158087 0-16.10377 13.419637-29.158087 29.953196-29.158087l300.626895-0.265036c16.549931 0 29.953196 13.05534 29.953196 29.158087C693.931562 378.947681 680.529321 392.001999 663.978367 392.001999L663.978367 392.001999zM663.978367 508.634346l-300.626895 0.265036c-16.533558 0-29.953196-13.054317-29.953196-29.158087s13.419637-29.158087 29.953196-29.158087l300.626895-0.265036c16.549931 0 29.953196 13.05534 29.953196 29.158087C693.931562 495.580029 680.529321 508.634346 663.978367 508.634346L663.978367 508.634346zM773.96741 617.513102c-0.297782 0.281409-0.662079 0.530073-0.99363 0.795109-0.89437 0.712221-1.788739 1.424442-2.76702 2.038426-0.5137 0.347924-0.944512 0.778736-1.490957 1.092891L568.717769 816.683281c-5.367241 7.885598-14.528901 13.104459-24.966625 13.104459-4.191462 0-8.184403-0.845251-11.795651-2.352581-3.645017-1.425466-7.057743-3.562129-10.006911-6.42841-7.355525-7.173376-10.05603-17.146519-8.150634-26.391067l-0.182149-140.207275 0.198521 0 0-29.158087c0-32.206516 26.805506-58.316174 59.890019-58.316174l31.824823 0 0-0.066515 117.858268-0.165776-0.182149-272.031627c-1.789763-40.175001-15.258519-47.77919-59.641355-47.77919l26.888394-0.645706-345.323886 0.198521 18.936281 0.447185c-48.044226 0-59.890019 8.813736-59.890019 58.332547l0.398066-58.763358-0.645706 0 0.232291 524.811794 0.414439 0-0.398066-59.244312c0 49.51881 11.845793 58.316174 59.890019 58.316174l-36.994566 0.877997 95.475492-0.165776c16.534582 0 29.936823 13.05534 29.936823 29.158087 0 16.102746-13.402241 29.158087-29.936823 29.158087l-88.402399 0.165776 0-0.182149-29.953196 0c-33.084513 0-59.890019-26.109658-59.890019-58.316174l0-30.980595-0.033769 0-0.231267-462.884372 0.265036 0 0-30.980595c0-31.295773 25.363667-56.626695 57.155744-58.051137l422.278559-0.232291c32.057113 0.165776 57.918108 24.850991 59.326177 55.748698l0.265036 345.920474c0.447185 2.02103 0.728594 4.092201 0.728594 6.245238C784.057209 604.475158 780.113387 612.178607 773.96741 617.513102L773.96741 617.513102zM573.455677 625.217574l0.082888 52.252061 0.347924-51.838645 60.436464-0.397043c-49.751101 0-60.353576 11.149944-60.784388 55.400774l0.066515 48.707328 106.791212-104.256482L573.455677 625.217574 573.455677 625.217574zM723.172537 246.227937l-0.115634 0 0.132006 18.654872L723.172537 246.227937 723.172537 246.227937z" p-id="4540"></path></svg>