<?xml version="1.0" standalone="no"?><!DOCTYPE svg PUBLIC "-//W3C//DTD SVG 1.1//EN" "http://www.w3.org/Graphics/SVG/1.1/DTD/svg11.dtd"><svg t="1765958904682" class="icon" viewBox="0 0 1024 1024" version="1.1" xmlns="http://www.w3.org/2000/svg" p-id="3534" xmlns:xlink="http://www.w3.org/1999/xlink" width="200" height="200"><path d="M393.178 564.628v-0.455H135.076c-18.812 0-36.503 7.327-49.814 20.634-13.312 13.312-20.64 31.011-20.635 49.836v250.156c-0.005 18.824 7.323 36.522 20.634 49.832 13.307 13.309 30.999 20.636 49.832 20.636h250.176c18.819 0 36.512-7.328 49.818-20.636 13.311-13.315 20.639-31.014 20.634-49.83V634.643c0-18.822-7.33-36.517-20.642-49.828-11.423-11.416-26.072-18.428-41.901-20.187z m31.229 320.173c0 10.459-4.073 20.293-11.466 27.69-7.392 7.392-17.219 11.462-27.689 11.462H135.076c-10.453 0-20.278-4.07-27.669-11.462-7.398-7.397-11.471-17.23-11.467-27.69V634.643c0-10.457 4.073-20.287 11.469-27.68 7.394-7.39 17.218-11.459 27.681-11.459l7.929-0.015v-0.003h242.232c10.462 0 20.295 4.071 27.689 11.467 7.394 7.394 11.466 17.227 11.466 27.689v250.159zM385.251 63.868H135.076c-18.812 0-36.503 7.329-49.814 20.634-13.312 13.31-20.64 31.009-20.635 49.835v250.157c-0.005 18.825 7.324 36.522 20.634 49.831 13.306 13.308 30.997 20.635 49.832 20.635h250.176c18.82 0 36.513-7.328 49.818-20.635 13.311-13.314 20.639-31.012 20.634-49.829V134.34c0.005-18.823-7.323-36.522-20.637-49.838-13.31-13.305-31.001-20.634-49.833-20.634z m39.156 320.629c0 10.458-4.073 20.292-11.466 27.689-7.392 7.392-17.219 11.462-27.689 11.462H135.076c-10.453 0-20.278-4.07-27.669-11.461-7.398-7.399-11.471-17.231-11.467-27.69V134.334c-0.004-10.46 4.068-20.292 11.467-27.687 7.391-7.392 17.219-11.462 27.686-11.462h250.172c10.456 0 20.285 4.071 27.676 11.461 7.394 7.395 11.467 17.229 11.467 27.692v250.159zM635.396 454.962h250.175c18.819 0 36.513-7.329 49.82-20.636 13.311-13.316 20.639-31.014 20.634-49.83V134.338c0-18.824-7.33-36.517-20.635-49.818-11.42-11.419-26.071-18.436-41.891-20.196v-0.456H635.396c-18.813 0-36.506 7.328-49.818 20.635-13.311 13.317-20.64 31.015-20.634 49.834v250.157c-0.006 18.818 7.32 36.514 20.63 49.829 13.31 13.31 31.003 20.639 49.822 20.639z m-39.133-320.624c0-10.46 4.071-20.29 11.463-27.68 7.395-7.389 17.221-11.459 27.671-11.459v-0.017l0.015 0.017 19.129-0.011-0.008-0.007h231.023c10.462 0 20.295 4.072 27.689 11.467 7.396 7.395 11.465 17.227 11.462 27.689V384.5c0.003 10.456-4.065 20.286-11.458 27.68-7.394 7.396-17.222 11.469-27.676 11.469H635.396c-10.454 0-20.281-4.07-27.671-11.46-7.396-7.399-11.468-17.232-11.463-27.691v-250.16zM901.092 853.015c26.894-32.959 42.873-75.326 42.873-122.053 0-107.395-88.216-191.776-191.774-191.776-107.396 0-191.776 84.382-191.776 191.776s84.381 191.774 191.776 191.774c41.39 0 79.354-12.543 110.395-34.097l54.531 60.947 42.193-38.355-58.218-58.216zM752.19 884.382c-84.382 0-153.422-72.875-153.422-153.42 0-80.544 69.04-153.42 153.422-153.42 84.38 0 153.42 69.039 153.42 153.42 0 84.38-69.04 153.42-153.42 153.42z" p-id="3535"></path></svg>